HIERARCHY
ROOT hip
{
  OFFSET 0 0 0
  CHANNELS 6 Xposition Yposition Zposition Zrotation Yrotation Xrotation
  JOINT abdomen
  {
    OFFSET 0 20.6881 -0.73152
    CHANNELS 3 Zrotation Xrotation Yrotation
    JOINT chest
    {
      OFFSET 0 11.7043 -0.48768
      CHANNELS 3 Zrotation Xrotation Yrotation
      JOINT neck
      {
        OFFSET 0 22.1894 -2.19456
        CHANNELS 3 Zrotation Xrotation Yrotation
        JOINT head
        {
          OFFSET -0.24384 7.07133 1.2192
          CHANNELS 3 Zrotation Xrotation Yrotation
          JOINT leftEye
          {
            OFFSET 4.14528 8.04674 8.04672
            CHANNELS 3 Zrotation Xrotation Yrotation
            End Site
            {
              OFFSET 1 0 0
            }
          }
          JOINT rightEye
          {
            OFFSET -3.6576 8.04674 8.04672
            CHANNELS 3 Zrotation Xrotation Yrotation
            End Site
            {
              OFFSET 1 0 0
            }
          }
        }
      }
      JOINT rCollar
      {
        OFFSET -2.68224 19.2634 -4.8768
        CHANNELS 3 Zrotation Xrotation Yrotation
        JOINT rShldr
        {
          OFFSET -8.77824 -1.95073 1.46304
          CHANNELS 3 Zrotation Xrotation Yrotation
          JOINT rForeArm
          {
            OFFSET -28.1742 -1.7115 0.48768
            CHANNELS 3 Zrotation Xrotation Yrotation
            JOINT rHand
            {
              OFFSET -22.5879 0.773209 7.07136
              CHANNELS 3 Zrotation Xrotation Yrotation
              JOINT rThumb1
              {
                OFFSET -1.2192 -0.487915 3.41376
                CHANNELS 3 Zrotation Xrotation Yrotation
                JOINT rThumb2
                {
                  OFFSET -3.37035 -0.52449 3.41376
                  CHANNELS 3 Zrotation Xrotation Yrotation
                  End Site
                  {
                    OFFSET -1.78271 -1.18214 1.43049
                  }
                }
              }
              JOINT rIndex1
              {
                OFFSET -7.75947 0.938293 5.60832
                CHANNELS 3 Zrotation Xrotation Yrotation
                JOINT rIndex2
                {
                  OFFSET -2.54057 -0.884171 1.56538
                  CHANNELS 3 Zrotation Xrotation Yrotation
                  End Site
                  {
                    OFFSET -1.62519 -0.234802 1.16502
                  }
                }
              }
              JOINT rMid1
              {
                OFFSET -8.24714 1.18213 3.41376
                CHANNELS 3 Zrotation Xrotation Yrotation
                JOINT rMid2
                {
                  OFFSET -3.10165 -0.590103 1.0647
                  CHANNELS 3 Zrotation Xrotation Yrotation
                  End Site
                  {
                    OFFSET -2.48547 -0.328903 0.83742
                  }
                }
              }
              JOINT rRing1
              {
                OFFSET -8.82822 0.546677 1.51678
                CHANNELS 3 Zrotation Xrotation Yrotation
                JOINT rRing2
                {
                  OFFSET -2.60934 -0.819778 -0.0198488
                  CHANNELS 3 Zrotation Xrotation Yrotation
                  End Site
                  {
                    OFFSET -2.33842 -0.294052 0.168128
                  }
                }
              }
              JOINT rPinky1
              {
                OFFSET -8.27202 -0.0477905 -0.4584
                CHANNELS 3 Zrotation Xrotation Yrotation
                JOINT rPinky2
                {
                  OFFSET -1.82734 -0.647385 -0.700984
                  CHANNELS 3 Zrotation Xrotation Yrotation
                  End Site
                  {
                    OFFSET -1.69225 -0.51767 -0.607171
                  }
                }
              }
            }
          }
        }
      }
      JOINT lCollar
      {
        OFFSET 2.68224 19.2634 -4.8768
        CHANNELS 3 Zrotation Xrotation Yrotation
        JOINT lShldr
        {
          OFFSET 8.77824 -1.95073 1.46304
          CHANNELS 3 Zrotation Xrotation Yrotation
          JOINT lForeArm
          {
            OFFSET 28.1742 -1.7115 0.48768
            CHANNELS 3 Zrotation Xrotation Yrotation
            JOINT lHand
            {
              OFFSET 22.5879 0.773209 7.07136
              CHANNELS 3 Zrotation Xrotation Yrotation
              JOINT lThumb1
              {
                OFFSET 1.2192 -0.487915 3.41376
                CHANNELS 3 Zrotation Xrotation Yrotation
                JOINT lThumb2
                {
                  OFFSET 3.37035 -0.52449 3.41376
                  CHANNELS 3 Zrotation Xrotation Yrotation
                  End Site
                  {
                    OFFSET 1.78271 -1.18214 1.43049
                  }
                }
              }
              JOINT lIndex1
              {
                OFFSET 7.75947 0.938293 5.60832
                CHANNELS 3 Zrotation Xrotation Yrotation
                JOINT lIndex2
                {
                  OFFSET 2.54057 -0.884171 1.56538
                  CHANNELS 3 Zrotation Xrotation Yrotation
                  End Site
                  {
                    OFFSET 1.62519 -0.234802 1.16502
                  }
                }
              }
              JOINT lMid1
              {
                OFFSET 8.24714 1.18213 3.41376
                CHANNELS 3 Zrotation Xrotation Yrotation
                JOINT lMid2
                {
                  OFFSET 3.10165 -0.590103 1.0647
                  CHANNELS 3 Zrotation Xrotation Yrotation
                  End Site
                  {
                    OFFSET 2.48547 -0.328903 0.83742
                  }
                }
              }
              JOINT lRing1
              {
                OFFSET 8.82822 0.546677 1.51678
                CHANNELS 3 Zrotation Xrotation Yrotation
                JOINT lRing2
                {
                  OFFSET 2.60934 -0.819778 -0.0198488
                  CHANNELS 3 Zrotation Xrotation Yrotation
                  End Site
                  {
                    OFFSET 2.33842 -0.294052 0.168128
                  }
                }
              }
              JOINT lPinky1
              {
                OFFSET 8.27202 -0.0477905 -0.4584
                CHANNELS 3 Zrotation Xrotation Yrotation
                JOINT lPinky2
                {
                  OFFSET 1.82734 -0.647385 -0.700984
                  CHANNELS 3 Zrotation Xrotation Yrotation
                  End Site
                  {
                    OFFSET 1.69225 -0.51767 -0.607171
                  }
                }
              }
            }
          }
        }
      }
    }
  }
  JOINT rButtock
  {
    OFFSET -8.77824 4.35084 1.2192
    CHANNELS 3 Zrotation Xrotation Yrotation
    JOINT rThigh
    {
      OFFSET 0 -1.70687 -2.19456
      CHANNELS 3 Zrotation Xrotation Yrotation
      JOINT rShin
      {
        OFFSET 0 -36.8199 0.73152
        CHANNELS 3 Zrotation Xrotation Yrotation
        JOINT rFoot
        {
          OFFSET 0.73152 -45.1104 -5.12064
          CHANNELS 3 Zrotation Xrotation Yrotation
          End Site
          {
            OFFSET -1.1221 -3.69964 12.103
          }
        }
      }
    }
  }
  JOINT lButtock
  {
    OFFSET 8.77824 4.35084 1.2192
    CHANNELS 3 Zrotation Xrotation Yrotation
    JOINT lThigh
    {
      OFFSET 0 -1.70687 -2.19456
      CHANNELS 3 Zrotation Xrotation Yrotation
      JOINT lShin
      {
        OFFSET 0 -36.8199 0.73152
        CHANNELS 3 Zrotation Xrotation Yrotation
        JOINT lFoot
        {
          OFFSET -0.73152 -45.1104 -5.12064
          CHANNELS 3 Zrotation Xrotation Yrotation
          End Site
          {
            OFFSET 1.1221 -3.69964 12.103
          }
        }
      }
    }
  }
}
MOTION
Frames:	6
Frame Time:	0.00833333
-0.720208 84.1002 -35.1238 0.0 0.0 0.0 -1.51926 -0.00282944 -0.0413936 -0.4187 0.00102613 -0.0725115 3.00668e-14 -7.95139e-16 3.97569e-16 9.01054e-14 3.18055e-15 1.13991e-15 -0.0 0.0 0.0 -0.0 0.0 0.0 1.52064e-14 3.18366e-17 3.97569e-16 3.18108e-13 7.95139e-16 5.76476e-15 5.44978e-12 -1.60996e-12 9.54166e-15 6.23796e-11 1.76141e-12 8.71472e-13 1.47143e-10 3.25983e-13 1.90515e-12 2.54098e-10 5.59778e-13 3.26325e-12 1.47146e-10 3.24814e-13 1.88925e-12 7.73091 5.47488 0.417314 1.47143e-10 3.2541e-13 1.90515e-12 2.90554 0.965183 0.102902 1.47145e-10 3.25907e-13 1.89402e-12 10.2786 0.731801 0.0259123 1.47142e-10 3.27597e-13 1.89561e-12 2.22167 -0.733487 -0.20892 1.51093e-14 3.26131e-17 0.0 3.13815e-13 6.02566e-16 4.17448e-15 5.45003e-12 1.65369e-12 2.8625e-14 6.23646e-11 -1.51536e-12 8.5875e-13 1.47118e-10 3.01049e-13 1.90515e-12 2.54071e-10 5.21611e-13 3.27915e-12 1.47113e-10 3.01755e-13 1.91151e-12 -7.73091 5.47488 -0.417314 1.47117e-10 3.01358e-13 1.90197e-12 -2.90554 0.965183 -0.102902 1.47106e-10 3.01258e-13 1.90356e-12 -10.2786 0.731801 -0.0259123 1.47127e-10 3.02948e-13 1.89243e-12 -2.22167 -0.733487 0.20892 -2.03217e-16 0.0 -3.88251e-19 -0.640553 -1.92323 -0.00643606 -0.00925455 -2.07856 -0.076427 -0.512136 3.99733 0.140309 2.03217e-16 0.0 3.88251e-19 -1.66975 -6.49782 0.154697 -0.00231048 6.208 -0.0679822 0.534063 0.28549 -0.0665701
-2.67463 82.2656 -37.3533 -7.9632 -1.1933 7.9751 0.481778 -1.22385 0.474863 0.526648 0.690718 0.0345392 0.292257 0.984661 0.149689 -2.02096 7.91724 0.735352 -0.0 0.0 0.0 -0.0 0.0 0.0 6.11166e-14 1.25606e-13 -4.69295e-14 20.8682 5.69519 0.772678 -3.81384 -1.65934 6.03426 0.00754681 -1.92739 -0.270324 1.87905e-10 3.22175e-10 -1.04682e-09 3.28743e-10 5.52002e-10 -1.8086e-09 1.87909e-10 3.22175e-10 -1.04683e-09 7.73091 5.47488 0.417314 1.87905e-10 3.22175e-10 -1.04682e-09 2.90554 0.965183 0.102902 1.87909e-10 3.22175e-10 -1.04682e-09 10.2786 0.731801 0.0259123 1.87902e-10 3.22175e-10 -1.04682e-09 2.22167 -0.733487 -0.20892 6.10553e-14 1.25606e-13 -4.73011e-14 -22.2258 7.13006 -0.442309 3.93719 -1.73623 -6.20556 -0.000380187 -0.432509 0.060779 1.86516e-10 9.10251e-10 7.45412e-10 3.24966e-10 1.57523e-09 1.28841e-09 1.86511e-10 9.10252e-10 7.4542e-10 -7.73091 5.47488 -0.417314 1.86514e-10 9.10249e-10 7.45409e-10 -2.90554 0.965183 -0.102902 1.86503e-10 9.10251e-10 7.45412e-10 -10.2786 0.731801 -0.0259123 1.86524e-10 9.10251e-10 7.45401e-10 -2.22167 -0.733487 0.20892 -2.03217e-16 0.0 -3.88251e-19 0.686571 -6.72178 0.506511 0.00186501 5.80245 0.058396 -0.577159 0.0344011 -1.13747 2.03217e-16 0.0 3.88251e-19 1.85072 -11.2974 0.545297 -0.0096829 14.5434 -0.207355 0.575676 -3.94482 0.799946
-2.67423 82.2656 -37.3504 -7.935 -1.2758 7.9717 2.62211 -2.51481 1.02028 1.52428 1.42102 0.147339 0.590695 2.01931 0.307885 -4.38118 16.2851 1.5602 -0.0 0.0 0.0 -0.0 0.0 0.0 1.15662e-13 2.70362e-13 -1.00231e-13 42.7537 11.7122 1.61917 -7.46618 -3.35102 12.4269 -0.0042877 -3.96151 -0.556654 2.22416e-10 7.15242e-10 -2.25091e-09 3.93195e-10 1.22587e-09 -3.88894e-09 2.2242e-10 7.15243e-10 -2.25092e-09 7.73091 5.47488 0.417314 2.22415e-10 7.15242e-10 -2.25091e-09 2.90554 0.965183 0.102902 2.2242e-10 7.15242e-10 -2.25091e-09 10.2786 0.731801 0.0259123 2.22411e-10 7.15241e-10 -2.2509e-09 2.22167 -0.733487 -0.20892 1.15638e-13 2.70361e-13 -1.00576e-13 -45.5979 14.6629 -0.937951 7.69265 -3.50352 -12.7833 0.000215772 -0.889746 0.125045 2.18399e-10 1.94459e-09 1.59815e-09 3.83298e-10 3.36523e-09 2.76235e-09 2.18394e-10 1.94459e-09 1.59816e-09 -7.73091 5.47488 -0.417314 2.18395e-10 1.94458e-09 1.59815e-09 -2.90554 0.965183 -0.102902 2.18384e-10 1.94458e-09 1.59815e-09 -10.2786 0.731801 -0.0259123 2.18405e-10 1.94458e-09 1.59814e-09 -2.22167 -0.733487 0.20892 -2.03217e-16 0.0 -3.88251e-19 2.18564 -11.7936 1.06246 -0.0275374 14.1338 0.206661 -0.838277 -4.15158 -2.49401 2.03217e-16 0.0 3.88251e-19 5.64732 -16.3707 0.975907 0.0306134 23.3549 -0.37194 0.760556 -8.41617 1.7323
-2.64424 82.2653 -37.3485 -7.844 -1.3482 7.9696 4.54998 -3.66474 1.51014 2.40961 2.07008 0.248795 0.861317 2.9539 0.449597 -6.72026 23.7353 2.38704 -0.0 0.0 0.0 -0.0 0.0 0.0 1.52937e-13 3.76754e-13 -1.41584e-13 62.1258 17.0729 2.41298 -10.4093 -4.75757 18.1599 -0.0321562 -5.78166 -0.814657 2.69431e-10 9.65874e-10 -3.14426e-09 4.78032e-10 1.65489e-09 -5.43233e-09 2.69435e-10 9.65875e-10 -3.14427e-09 7.73091 5.47488 0.417314 2.69429e-10 9.65874e-10 -3.14426e-09 2.90554 0.965183 0.102902 2.69436e-10 9.65873e-10 -3.14426e-09 10.2786 0.731801 0.0259123 2.69424e-10 9.65871e-10 -3.14425e-09 2.22167 -0.733487 -0.20892 1.52947e-13 3.76752e-13 -1.41903e-13 -66.3265 21.3849 -1.41404 10.7018 -4.96477 -18.6808 0.00161285 -1.29752 0.182378 2.65312e-10 2.73015e-09 2.23243e-09 4.66756e-10 4.72464e-09 3.85868e-09 2.65308e-10 2.73015e-09 2.23244e-09 -7.73091 5.47488 -0.417314 2.65307e-10 2.73015e-09 2.23242e-09 -2.90554 0.965183 -0.102902 2.65297e-10 2.73015e-09 2.23243e-09 -10.2786 0.731801 -0.0259123 2.65317e-10 2.73015e-09 2.23242e-09 -2.22167 -0.733487 0.20892 -2.03217e-16 0.0 -3.88251e-19 3.60808 -16.3138 1.58582 -0.092979 21.5641 0.351658 -1.24024 -7.87498 -3.72754 2.03217e-16 0.0 3.88251e-19 9.10129 -20.8923 1.38806 0.117025 31.2133 -0.546004 1.05022 -12.3943 2.58764
-2.63438 82.2662 -37.344 -7.8521 -1.3821 7.9539 5.90019 -4.46314 1.85848 3.01961 2.51609 0.321735 1.07312 3.63843 0.549608 -8.52756 28.9068 3.04801 -0.0 0.0 0.0 -0.0 0.0 0.0 1.47039e-13 3.87234e-13 -1.53064e-13 75.5623 20.8051 2.98386 -12.2988 -5.66042 22.1897 -0.0616541 -7.06738 -0.998375 3.47706e-10 8.60416e-10 -3.26076e-09 6.13829e-10 1.47174e-09 -5.63333e-09 3.4771e-10 8.60419e-10 -3.26077e-09 7.73091 5.47488 0.417314 3.47704e-10 8.60417e-10 -3.26076e-09 2.90554 0.965183 0.102902 3.47713e-10 8.60416e-10 -3.26076e-09 10.2786 0.731801 0.0259123 3.47699e-10 8.60413e-10 -3.26075e-09 2.22167 -0.733487 -0.20892 1.47073e-13 3.87232e-13 -1.53362e-13 -80.7069 26.0848 -1.7568 12.6199 -5.89303 -22.8164 0.0030691 -1.58165 0.222344 3.49802e-10 2.89379e-09 2.32055e-09 6.13028e-10 5.00759e-09 4.01101e-09 3.49798e-10 2.8938e-09 2.32056e-09 -7.73091 5.47488 -0.417314 3.49796e-10 2.89379e-09 2.32055e-09 -2.90554 0.965183 -0.102902 3.49787e-10 2.89379e-09 2.32055e-09 -10.2786 0.731801 -0.0259123 3.49806e-10 2.89379e-09 2.32055e-09 -2.22167 -0.733487 0.20892 -2.03217e-16 0.0 -3.88251e-19 4.64841 -19.4597 1.97927 -0.163782 26.7424 0.464158 -1.61748 -10.4593 -4.6112 2.03217e-16 0.0 3.88251e-19 11.5477 -24.0379 1.70197 0.212965 36.6894 -0.691285 1.32147 -15.1504 3.19737
-2.63775 82.2672 -37.3405 -7.9281 -1.3781 7.9402 6.41655 -4.76909 2.0063 3.24206 2.67266 0.354816 1.21547 3.98455 0.590163 -9.33585 30.8958 3.33614 -0.0 0.0 0.0 -0.0 0.0 0.0 5.86377e-14 2.32186e-13 -1.17922e-13 80.8695 22.2629 3.16419 -13.0175 -6.00262 23.8033 -0.0762208 -7.60847 -1.07611 5.93207e-10 1.81065e-11 -2.03769e-09 1.03337e-09 2.05067e-11 -3.51912e-09 5.9321e-10 1.81093e-11 -2.0377e-09 7.73091 5.47488 0.417314 5.93204e-10 1.81069e-11 -2.03769e-09 2.90554 0.965183 0.102902 5.93214e-10 1.81064e-11 -2.03769e-09 10.2786 0.731801 0.0259123 5.93201e-10 1.81047e-11 -2.03768e-09 2.22167 -0.733487 -0.20892 5.86825e-14 2.32184e-13 -1.18204e-13 -86.3336 27.9598 -1.83374 13.3375 -6.23588 -24.4517 0.00374203 -1.69172 0.237831 6.15225e-10 2.07821e-09 1.49596e-09 1.06832e-09 3.59536e-09 2.58573e-09 6.1522e-10 2.07821e-09 1.49598e-09 -7.73091 5.47488 -0.417314 6.15218e-10 2.0782e-09 1.49596e-09 -2.90554 0.965183 -0.102902 6.15212e-10 2.0782e-09 1.49597e-09 -10.2786 0.731801 -0.0259123 6.1523e-10 2.0782e-09 1.49596e-09 -2.22167 -0.733487 0.20892 -2.03217e-16 0.0 -3.88251e-19 5.05978 -20.6781 2.15811 -0.197962 28.7683 0.509909 -1.7892 -11.4648 -4.972 2.03217e-16 0.0 3.88251e-19 12.5061 -25.2518 1.84427 0.260214 38.8279 -0.755037 1.43451 -16.2014 3.41966
